# xmcd
#
# Track frame offsets: 
#        150
#        13310
#        31497
#        49450
#        70075
#        81800
#        100400
#        110925
#        123487
#        137317
#        151225
#        169825
#        187115
#        197787
#        209600
#        225330
#        242525
#        261237
#        274262
#        287262
#
# Disc length: 4011 seconds
#
# Revision: 0
# Processed by: cddbd v1.4PL0 Copyright (c) Steve Scherf et al.
# Submitted via: ExactAudioCopy v0.90b4
#
DISCID=270fa914
DTITLE=jonny hill - wieder auf tournee
DYEAR=1900
DGENRE=
TTITLE0=mein bester freund
TTITLE1=bis der letzte fluss versiegt
TTITLE2=der alte fluss
TTITLE3=der feigling
TTITLE4=ich komm nicht los von dir
TTITLE5=wieder mal auf tounee
TTITLE6=gluecklichsein mit dir allein
TTITLE7=wenn der morgen komt in hamburg
TTITLE8=ich loesche das licht aus
TTITLE9=ich und fred
TTITLE10=der haussong
TTITLE11=damals war sie noch schoen
TTITLE12=heite nacht da brauch ich dic
TTITLE13=ja die tuer steht immer offen
TTITLE14=mein leben mit dir
TTITLE15=wo der mond versinkt
TTITLE16=sylvia's mutter
TTITLE17=es sind nur erinnerungen
TTITLE18=mein lied fuer dich 
TTITLE19=ich werde gehn
EXTD=
EXTT0=
EXTT1=
EXTT2=
EXTT3=
EXTT4=
EXTT5=
EXTT6=
EXTT7=
EXTT8=
EXTT9=
EXTT10=
EXTT11=
EXTT12=
EXTT13=
EXTT14=
EXTT15=
EXTT16=
EXTT17=
EXTT18=
EXTT19=
PLAYORDER=
